<?xml version="1.0" encoding="UTF-8"?>
<svg id="Layer_2" data-name="Layer 2" xmlns="http://www.w3.org/2000/svg" viewBox="0 0 1080 1080">
  <defs>
    <style>
      .cls-1 {
        fill: #bc3320;
      }

      .cls-2 {
        fill: #231f20;
      }
    </style>
  </defs>
  <g>
    <path class="cls-1" d="M358.216,243.32c-3.635,3.001-7.174,5.479-10.619,7.442-3.447,1.96-6.578,3.622-9.394,4.982-2.818,1.362-5.279,2.471-7.386,3.325-2.107.857-3.688,1.718-4.739,2.586-.957.79-1.652,1.605-2.083,2.443-.433.841-.827,2.213-1.186,4.115-.196,1.127-.493,2.133-.883,3.021-.395.887-.926,1.608-1.593,2.16-1.147.947-2.349,1.295-3.601,1.043-1.254-.249-2.708-1.381-4.367-3.39l-21.791-26.39c-1.736-2.102-2.652-3.841-2.739-5.216-.09-1.373.534-2.612,1.875-3.719,1.241-1.024,2.768-1.321,4.576-.884,1.808.437,4.255,1.552,7.344,3.343,9.151,5.632,17.543,8.392,25.171,8.282,7.63-.108,16.033-3.953,25.212-11.532,7.648-6.316,11.706-12.599,12.171-18.854.464-6.252-1.513-12.056-5.935-17.412-2.605-3.155-5.498-5.146-8.678-5.98-3.18-.83-6.54-.909-10.084-.236-3.543.676-7.316,1.903-11.317,3.677-4.001,1.777-8.117,3.607-12.349,5.493-4.869,2.091-9.82,4.129-14.852,6.113-5.035,1.986-10.013,3.165-14.936,3.528-4.924.369-9.768-.335-14.53-2.113-4.762-1.773-9.276-5.245-13.54-10.408-6.869-8.318-9.415-17.633-7.638-27.945,1.776-10.31,7.589-19.533,17.438-27.666,6.214-5.132,11.445-8.486,15.691-10.063,4.247-1.576,7.277-3.114,9.095-4.615,1.147-.947,1.957-1.815,2.429-2.608.472-.789.888-2.139,1.245-4.043.291-1.205.652-2.227,1.085-3.067.431-.838.982-1.535,1.653-2.088.955-.788,1.978-1.109,3.064-.963,1.088.149,2.263.988,3.525,2.517l18.238,22.087c1.5,1.817,2.275,3.391,2.325,4.714.048,1.328-.549,2.504-1.791,3.528-1.244,1.027-2.627,1.446-4.149,1.256-1.524-.188-3.671-.986-6.443-2.398-8.126-4.387-14.987-6.319-20.586-5.797-5.599.523-11.747,3.549-18.438,9.074-5.737,4.737-9.379,9.675-10.926,14.812-1.547,5.138-.267,10.193,3.837,15.164,2.528,3.061,5.336,5.001,8.428,5.825,3.092.823,6.366.895,9.823.211,3.455-.683,7.138-1.873,11.042-3.57,3.907-1.696,7.926-3.447,12.062-5.257,5.154-2.326,10.387-4.556,15.701-6.693,5.313-2.133,10.506-3.489,15.582-4.062s10.021-.032,14.841,1.614c4.82,1.651,9.36,5.056,13.624,10.219,8.37,10.136,11.555,21.055,9.557,32.753-1.998,11.702-8.686,22.249-20.063,31.644Z"/>
    <path class="cls-1" d="M472.135,158.327c.6,1.632.53,4.135-.209,7.51-.739,3.378-2.229,6.964-4.464,10.76-2.238,3.796-5.301,7.5-9.19,11.111-3.892,3.611-8.745,6.487-14.563,8.629-5.935,2.184-11.956,3.241-18.056,3.175-6.103-.064-11.788-1.242-17.057-3.534-5.271-2.287-10.033-5.722-14.294-10.298-4.26-4.577-7.611-10.182-10.052-16.814-2.611-7.097-3.956-14.068-4.029-20.913-.074-6.842,1.045-13.134,3.361-18.876,2.313-5.738,5.842-10.87,10.588-15.392,4.744-4.521,10.548-8.043,17.416-10.57,5.351-1.969,10.493-2.901,15.419-2.8,4.925.104,9.399,1.035,13.415,2.793,4.017,1.761,7.517,4.27,10.501,7.532,2.984,3.262,5.269,7.048,6.853,11.352,1.842,5.005,2.55,8.907,2.126,11.704-.425,2.801-2.032,4.712-4.825,5.739l-52.891,19.462c5.176,10.12,11.689,16.509,19.54,19.17,7.848,2.661,15.729,2.536,23.645-.377,4.304-1.583,7.677-3.55,10.116-5.902,2.437-2.349,4.34-4.635,5.703-6.854,1.364-2.218,2.449-4.202,3.259-5.956.809-1.75,1.737-2.819,2.785-3.205,1.162-.427,2.163-.399,3.004.084.838.484,1.473,1.311,1.9,2.472ZM410.12,114.752c-5.935,2.185-10.222,6.338-12.856,12.46-2.637,6.124-2.22,13.897,1.249,23.324l39.303-15.453c1.511-.557,2.365-1.199,2.559-1.933.193-.73.097-1.622-.288-2.669-2.312-6.284-6.229-11.086-11.743-14.408-5.517-3.321-11.591-3.762-18.224-1.321Z"/>
    <path class="cls-1" d="M563.904,151.456c.105,1.857-.626,4.32-2.189,7.39-1.566,3.07-3.908,6.122-7.025,9.154-3.12,3.036-7.007,5.707-11.655,8.021-4.651,2.312-9.886,3.635-15.704,3.964-6.067.345-11.885-.414-17.455-2.27-5.572-1.855-10.479-4.622-14.722-8.294-4.246-3.672-7.705-8.255-10.375-13.757-2.672-5.498-4.204-11.714-4.597-18.648-.428-7.55.441-14.649,2.611-21.293,2.167-6.644,5.41-12.445,9.725-17.412,4.312-4.963,9.552-8.954,15.715-11.976,6.163-3.019,13.019-4.744,20.572-5.172,9.16-.52,16.318.876,21.476,4.185,5.153,3.312,7.905,7.999,8.249,14.063.218,3.839-.699,6.871-2.744,9.098-2.048,2.229-4.557,3.426-7.527,3.594-3.839.218-7.159-1.393-9.962-4.837-2.804-3.442-4.862-9.04-6.169-16.79-.503-.094-1.002-.13-1.496-.102-.496.028-.992.057-1.485.084-9.285.527-16.791,3.997-22.511,10.405-5.723,6.412-8.281,14.94-7.677,25.586.358,6.314,1.541,11.868,3.553,16.659,2.01,4.793,4.561,8.715,7.654,11.769,3.09,3.056,6.694,5.272,10.81,6.652,4.113,1.382,8.4,1.945,12.857,1.692,4.332-.245,7.974-1.165,10.928-2.762,2.952-1.594,5.432-3.289,7.443-5.08,2.009-1.791,3.653-3.436,4.937-4.938,1.28-1.499,2.479-2.283,3.593-2.346.989-.057,1.752.244,2.286.895.532.654.829,1.476.886,2.465Z"/>
    <path class="cls-1" d="M604.572,184.371l-28.739-6.142c-2.669-.57-4.416-1.291-5.243-2.166-.829-.873-1.099-1.977-.813-3.312.285-1.333,1.02-2.255,2.207-2.762,1.185-.508,2.561-1.164,4.13-1.971,1.592-.926,2.94-2.191,4.044-3.795,1.104-1.602,2.225-5.07,3.365-10.408l7.774-36.379c1.191-5.576,1.224-9.596.104-12.055-1.125-2.458-3.385-4.052-6.777-4.777l-.546-.116c-.85-.182-1.526-.579-2.027-1.194-.505-.613-.65-1.405-.443-2.377.312-1.455,1.481-2.789,3.519-4.003,2.033-1.212,4.474-2.245,7.318-3.097,2.844-.848,5.903-1.368,9.177-1.558,3.273-.186,6.366.029,9.276.651,1.455.311,2.225,1.744,2.314,4.299.087,2.556-.364,7.34-1.355,14.355l-.905,7.795c4.88-8.593,9.983-14.539,15.319-17.839,5.332-3.298,11.092-4.287,17.276-2.965,4.365.933,7.38,2.846,9.044,5.736,1.665,2.894,2.095,6.219,1.292,9.977-.881,4.124-2.749,7.371-5.6,9.739-2.854,2.371-5.916,3.206-9.189,2.506-3.032-.647-5.365-2.192-6.998-4.634-1.636-2.441-2.411-5.936-2.325-10.481-4.765,1.52-9.27,5.246-13.517,11.186-4.25,5.939-7.656,14.912-10.222,26.917l-2.021,9.458c-1.348,6.307-1.65,10.84-.908,13.596.742,2.759,1.932,4.758,3.569,5.993,2.043,1.705,3.596,3.051,4.653,4.037,1.056.986,1.443,2.148,1.158,3.481-.26,1.213-.978,2.044-2.148,2.488-1.175.448-3.096.385-5.762-.185Z"/>
    <path class="cls-1" d="M721.277,206.92c-.796,1.545-2.687,3.187-5.673,4.925-2.988,1.74-6.637,3.069-10.944,3.989-4.311.92-9.11,1.169-14.4.747-5.293-.424-10.694-2.053-16.206-4.89-5.623-2.895-10.475-6.614-14.552-11.151-4.08-4.539-7.059-9.523-8.934-14.954-1.88-5.429-2.572-11.26-2.083-17.493.488-6.233,2.351-12.492,5.585-18.776,3.461-6.725,7.686-12.431,12.679-17.113,4.989-4.682,10.381-8.114,16.176-10.292,5.791-2.178,11.958-3.05,18.498-2.612,6.538.437,13.06,2.329,19.566,5.678,5.069,2.61,9.233,5.767,12.491,9.464,3.255,3.698,5.595,7.622,7.017,11.77,1.42,4.15,1.939,8.425,1.556,12.829-.385,4.404-1.628,8.648-3.727,12.726-2.44,4.742-4.836,7.902-7.182,9.482-2.351,1.582-4.845,1.69-7.491.328l-50.109-25.792c-3.953,10.657-4.253,19.776-.902,27.358,3.348,7.58,8.771,13.301,16.27,17.16,4.078,2.099,7.808,3.254,11.19,3.459,3.378.206,6.349.061,8.906-.437,2.556-.495,4.751-1.039,6.591-1.628,1.835-.589,3.251-.628,4.243-.117,1.102.566,1.758,1.323,1.971,2.27.21.944.031,1.971-.535,3.071ZM711.426,131.77c-5.623-2.895-11.582-3.242-17.873-1.041-6.293,2.199-11.737,7.766-16.334,16.695l37.967,18.496c1.432.737,2.481.932,3.154.578.668-.353,1.26-1.025,1.771-2.018,3.064-5.953,3.952-12.086,2.669-18.395-1.285-6.31-5.069-11.082-11.354-14.316Z"/>
    <path class="cls-1" d="M822.222,207.736l-.884.956c-1.514,1.64-3.128,2.472-4.836,2.496-1.712.025-3.296-.638-4.752-1.981l-17.902-16.529c-.547-.505-1.104-.68-1.666-.526-.566.154-1.143.552-1.729,1.188l-31.671,34.301c-5.469,5.924-8.098,10.965-7.887,15.123.21,4.16,1.908,7.71,5.099,10.656,1.821,1.682,3.688,2.859,5.603,3.527,1.913.67,3.732,1.167,5.457,1.493,1.724.326,3.244.552,4.567.674,1.319.122,2.255.437,2.802.941.637.587.883,1.237.735,1.945-.148.709-.599,1.472-1.356,2.291-1.094,1.186-2.922,2.111-5.482,2.786-2.562.672-5.452.875-8.663.608-3.215-.267-6.559-1.032-10.029-2.299-3.474-1.268-6.668-3.244-9.583-5.936-6.196-5.721-9.313-12.353-9.349-19.897-.04-7.544,3.265-14.915,9.911-22.113l32.932-35.668c1.092-1.184,1.677-2.502,1.751-3.953.073-1.451-.709-2.934-2.35-4.447l-3.826-3.533c-.912-.842-1.383-1.612-1.408-2.313-.03-.7.21-1.324.715-1.871l.883-.956c.925-1.002,3.287-1.688,7.092-2.061,3.801-.371,7.899-.467,12.296-.293,4.394.177,8.557.604,12.489,1.279,3.931.678,6.534,1.603,7.812,2.781l.546.505c.82.757,1.098,1.69.836,2.797-.265,1.108-.942,2.255-2.035,3.438l-7.57,8.199c-.59.639-.852,1.239-.783,1.809.065.567.326,1.061.783,1.482l20.499,18.926c1.001.925,1.559,1.692,1.671,2.303.11.608-.128,1.235-.715,1.872Z"/>
  </g>
  <g>
    <path class="cls-1" d="M324.278,1030.36c-9.86,0-18.565-1.767-26.111-5.296-7.549-3.529-13.452-8.581-17.711-15.155-4.263-6.573-6.391-14.484-6.391-23.736v-5.113h23.737v5.113c0,7.669,2.374,13.42,7.121,17.255,4.748,3.834,11.198,5.752,19.355,5.752,8.276,0,14.453-1.644,18.533-4.931,4.077-3.286,6.117-7.486,6.117-12.599,0-3.529-1.004-6.391-3.013-8.582-2.009-2.191-4.93-3.985-8.765-5.387-3.834-1.397-8.49-2.707-13.968-3.926l-4.2-.913c-8.764-1.945-16.282-4.41-22.55-7.395-6.271-2.981-11.078-6.907-14.425-11.777-3.349-4.867-5.021-11.198-5.021-18.989s1.854-14.454,5.569-19.994c3.712-5.538,8.947-9.798,15.703-12.782,6.756-2.98,14.699-4.473,23.828-4.473s17.255,1.552,24.376,4.655c7.121,3.104,12.719,7.732,16.798,13.878,4.077,6.147,6.117,13.849,6.117,23.098v5.478h-23.737v-5.478c0-4.867-.944-8.793-2.83-11.777-1.889-2.981-4.596-5.173-8.125-6.573-3.532-1.398-7.732-2.1-12.599-2.1-7.304,0-12.69,1.369-16.159,4.108-3.469,2.738-5.204,6.481-5.204,11.229,0,3.167.822,5.843,2.465,8.034,1.644,2.19,4.108,4.017,7.395,5.478,3.287,1.461,7.486,2.738,12.599,3.834l4.2.913c9.129,1.949,17.072,4.445,23.828,7.486,6.756,3.044,12.02,7.062,15.794,12.052,3.772,4.992,5.661,11.383,5.661,19.172s-1.98,14.639-5.935,20.542c-3.957,5.905-9.558,10.53-16.798,13.877-7.244,3.347-15.794,5.021-25.654,5.021Z"/>
    <path class="cls-1" d="M419.407,1030.36c-6.454,0-12.234-1.127-17.346-3.378-5.113-2.251-9.161-5.538-12.143-9.86-2.984-4.319-4.474-9.586-4.474-15.794s1.489-11.412,4.474-15.612c2.981-4.199,7.121-7.363,12.417-9.495,5.295-2.128,11.349-3.195,18.168-3.195h24.833v-5.112c0-4.26-1.341-7.76-4.017-10.499-2.679-2.739-6.938-4.108-12.782-4.108-5.723,0-9.982,1.31-12.781,3.926-2.802,2.619-4.627,5.997-5.478,10.134l-21.181-7.121c1.461-4.625,3.803-8.855,7.03-12.69,3.224-3.834,7.546-6.938,12.964-9.312,5.415-2.374,12.02-3.561,19.811-3.561,11.929,0,21.364,2.983,28.302,8.946,6.938,5.966,10.408,14.607,10.408,25.929v33.779c0,3.652,1.703,5.479,5.113,5.479h7.304v18.989h-15.338c-4.505,0-8.217-1.096-11.138-3.287-2.921-2.19-4.382-5.112-4.382-8.764v-.183h-3.469c-.488,1.46-1.583,3.378-3.287,5.751-1.706,2.374-4.382,4.474-8.034,6.3s-8.645,2.739-14.973,2.739ZM423.424,1011.735c6.451,0,11.714-1.794,15.794-5.387,4.077-3.589,6.117-8.367,6.117-14.333v-1.826h-23.189c-4.262,0-7.609.913-10.042,2.739-2.437,1.825-3.652,4.382-3.652,7.669s1.278,5.966,3.834,8.034c2.556,2.071,6.268,3.104,11.138,3.104Z"/>
    <path class="cls-1" d="M528.779,1029.265c-7.061,0-13.238-1.612-18.533-4.839-5.295-3.224-9.403-7.697-12.325-13.421-2.922-5.72-4.382-12.293-4.382-19.72v-54.048h23.007v52.222c0,6.819,1.672,11.932,5.021,15.338,3.347,3.409,8.125,5.112,14.333,5.112,7.059,0,12.537-2.342,16.434-7.029,3.895-4.685,5.844-11.229,5.844-19.629v-46.014h23.006v90.566h-22.641v-11.868h-3.287c-1.461,3.044-4.199,6.025-8.217,8.946-4.018,2.922-10.106,4.383-18.26,4.383Z"/>
    <path class="cls-1" d="M649.291,1030.36c-8.765,0-16.708-1.826-23.829-5.479-7.121-3.651-12.753-8.946-16.89-15.885-4.14-6.939-6.208-15.338-6.208-25.198v-2.557c0-9.859,2.068-18.259,6.208-25.197,4.137-6.938,9.769-12.234,16.89-15.886,7.121-3.652,15.064-5.478,23.829-5.478,8.642,0,16.067,1.523,22.276,4.564,6.208,3.044,11.229,7.212,15.063,12.508,3.834,5.295,6.359,11.292,7.577,17.985l-22.276,4.747c-.487-3.651-1.583-6.938-3.286-9.859-1.706-2.922-4.108-5.232-7.213-6.939-3.104-1.703-6.97-2.556-11.595-2.556s-8.795,1.004-12.507,3.013c-3.715,2.009-6.637,4.993-8.765,8.947-2.132,3.957-3.195,8.796-3.195,14.516v1.826c0,5.724,1.063,10.562,3.195,14.517,2.128,3.957,5.05,6.938,8.765,8.946,3.712,2.009,7.88,3.013,12.507,3.013,6.939,0,12.203-1.794,15.795-5.386,3.589-3.59,5.871-8.309,6.847-14.151l22.276,5.295c-1.583,6.454-4.291,12.325-8.125,17.62-3.834,5.296-8.855,9.467-15.063,12.508-6.209,3.042-13.635,4.565-22.276,4.565Z"/>
    <path class="cls-1" d="M755.012,1030.36c-9.01,0-16.953-1.918-23.829-5.752-6.878-3.835-12.233-9.25-16.067-16.251-3.835-6.998-5.752-15.246-5.752-24.741v-2.191c0-9.494,1.886-17.74,5.66-24.741,3.771-6.998,9.067-12.416,15.886-16.251,6.815-3.834,14.728-5.751,23.737-5.751,8.884,0,16.616,1.979,23.189,5.934,6.573,3.957,11.686,9.436,15.338,16.434,3.651,7.001,5.478,15.127,5.478,24.376v7.852h-65.916c.242,6.208,2.556,11.261,6.938,15.155,4.382,3.897,9.737,5.843,16.068,5.843,6.45,0,11.197-1.397,14.242-4.199,3.041-2.799,5.354-5.903,6.938-9.312l18.807,9.86c-1.706,3.167-4.171,6.604-7.395,10.316-3.227,3.715-7.518,6.879-12.873,9.495-5.358,2.616-12.174,3.926-20.45,3.926ZM732.918,972.113h42.361c-.488-5.232-2.588-9.433-6.3-12.6-3.714-3.164-8.553-4.747-14.516-4.747-6.208,0-11.139,1.583-14.79,4.747-3.652,3.167-5.906,7.367-6.756,12.6Z"/>
  </g>
  <g>
    <path class="cls-1" d="M616.199,300.022c-5.817-9.255-19.937-6.765-22.226,3.923l-8.987,41.954c-5.663,26.437-20.041,50.279-41.026,67.326-27.077,21.996-57.781,34.537-92.207,37.38-13.48,1.113-27.054-.189-40.123-3.674l-56.115-14.964c-9.284-2.476-17.632,6.267-14.748,15.433,42.003,133.497,72.326,267.935,90.978,403.314h340.937c15.899,0,28.788-12.889,28.788-28.788v-256.171c-61.445-76.679-123.249-167.059-185.27-265.733ZM755.429,561.058c-1.108,3.486-27.72,85.577-78.525,101.65-17.517,5.54-35.502,2.741-53.583-8.314-8.372,16.684-28.943,49.44-66.305,62.788-10.786,3.854-22.08,5.777-33.835,5.777-24.415,0-50.839-8.294-78.958-24.83-4.14-2.435-5.522-7.765-3.087-11.904,2.435-4.141,7.765-5.522,11.905-3.088,36.949,21.729,69.92,27.689,97.996,17.712,42.363-15.054,60.282-62.054,60.458-62.526.96-2.58,3.088-4.56,5.732-5.326,2.643-.767,5.497-.242,7.688,1.424,16.545,12.586,31.829,16.416,46.723,11.712,42.224-13.336,66.973-89.577,67.217-90.346,1.46-4.574,6.353-7.102,10.924-5.646,4.575,1.456,7.105,6.342,5.651,10.918Z"/>
    <path class="cls-1" d="M772.681,855.713h-470.063c-18.63,0-33.788-15.157-33.788-33.788v-355.573c0-71.804,27.962-139.311,78.735-190.084,50.773-50.773,118.279-78.735,190.083-78.735s139.311,27.962,190.084,78.735c50.773,50.773,78.735,118.28,78.735,190.084v355.573c0,18.631-15.157,33.788-33.788,33.788ZM537.649,202.532c-70.469,0-136.719,27.442-186.548,77.271-49.829,49.83-77.271,116.081-77.271,186.549v355.573c0,15.874,12.914,28.788,28.788,28.788h470.063c15.874,0,28.788-12.914,28.788-28.788v-355.573c0-70.468-27.442-136.719-77.271-186.549-49.83-49.829-116.081-77.271-186.549-77.271Z"/>
    <path class="cls-2" d="M700.805,357.195l-108.032,173.623c-11.19,17.984-32.053,27.53-52.978,24.239l-200.326-31.507c111.08,178.563,191.062,112.373,224.682,66.89,9.73-13.163,25.392-20.533,41.721-19.405,56.658,3.915,156.926-14.634,94.933-213.84Z"/>
    <path class="cls-2" d="M362.184,661.036c-3.799,0-7.288-2.507-8.367-6.344-1.3-4.623,1.394-9.426,6.017-10.726,35.611-10.018,62.425-5.73,63.547-5.543,4.738.79,7.938,5.271,7.148,10.008-.789,4.73-5.253,7.937-9.987,7.151h0c-.241-.039-24.35-3.775-56,5.126-.787.222-1.58.327-2.359.327Z"/>
    <path class="cls-2" d="M364.568,706.132c-2.825,0-5.594-1.374-7.267-3.907-2.646-4.009-1.54-9.403,2.468-12.048,30.875-20.376,57.722-24.45,58.85-24.614,4.756-.688,9.165,2.605,9.854,7.358.688,4.748-2.597,9.154-7.341,9.852-.385.059-24.426,3.866-51.783,21.92-1.475.974-3.138,1.439-4.782,1.439Z"/>
    <path class="cls-2" d="M774.454,474.486c2.238-3.07,2.266-7.367-.199-10.498-2.971-3.773-8.439-4.425-12.212-1.454-29.068,22.881-41.394,47.077-41.904,48.094-2.152,4.294-.415,9.519,3.878,11.671,4.288,2.149,9.508.428,11.661-3.86h0c.11-.218,11.289-21.903,37.122-42.24.643-.506,1.195-1.084,1.654-1.714Z"/>
    <path class="cls-2" d="M809.496,502.971c1.664-2.283,2.184-5.33,1.122-8.174-1.682-4.499-6.693-6.782-11.191-5.1-34.651,12.953-53.754,32.251-54.551,33.066-3.356,3.439-3.292,8.942.144,12.297,3.432,3.352,8.928,3.292,12.285-.131.274-.276,17.509-17.464,48.211-28.941,1.656-.619,3.011-1.688,3.979-3.017Z"/>
  </g>
</svg>