<?xml version="1.0" encoding="UTF-8"?>
<svg id="Layer_2" data-name="Layer 2" xmlns="http://www.w3.org/2000/svg" viewBox="0 0 1080 488.183">
  <defs>
    <style>
      .cls-1 {
        fill: #231f20;
      }

      .cls-2 {
        fill: none;
        stroke: #bc3320;
        stroke-linecap: round;
        stroke-linejoin: round;
        stroke-width: 11.054px;
      }

      .cls-3 {
        stroke-width: 4px;
      }

      .cls-3, .cls-4, .cls-5, .cls-6, .cls-7 {
        fill: #fbb040;
      }

      .cls-3, .cls-7 {
        stroke: #fbb040;
        stroke-miterlimit: 10;
      }

      .cls-4 {
        font-family: MeansWeb-Regular, 'Means Web';
        font-size: 151.72px;
      }

      .cls-5 {
        font-family: SpaceGrotesk-Bold, 'Space Grotesk';
        font-size: 198.905px;
        font-variation-settings: 'wght' 700;
        font-weight: 700;
      }

      .cls-8 {
        letter-spacing: 0em;
      }

      .cls-9 {
        letter-spacing: 0em;
      }

      .cls-10 {
        letter-spacing: -.02em;
      }

      .cls-11 {
        letter-spacing: -.014em;
      }

      .cls-7 {
        stroke-width: .75px;
      }

      .cls-12 {
        letter-spacing: .01em;
      }
    </style>
  </defs>
  <path class="cls-3" d="M367.932,450.579H69.171c-11.841,0-21.475-9.634-21.475-21.475v-225.994c0-45.637,17.772-88.542,50.042-120.813,32.27-32.27,75.175-50.042,120.812-50.042s88.542,17.772,120.813,50.042c32.27,32.27,50.042,75.176,50.042,120.813v225.994c0,11.841-9.634,21.475-21.475,21.475ZM218.551,35.433c-44.788,0-86.895,17.441-118.565,49.111-31.67,31.67-49.111,73.778-49.111,118.566v225.994c0,10.089,8.208,18.297,18.297,18.297h298.761c10.089,0,18.297-8.208,18.297-18.297v-225.994c0-44.788-17.441-86.895-49.111-118.566-31.671-31.67-73.778-49.111-118.566-49.111Z"/>
  <g>
    <g>
      <text class="cls-4" transform="translate(445.737 226.869)"><tspan class="cls-12" x="0" y="0">S</tspan><tspan x="95.886" y="0">ec</tspan><tspan class="cls-10" x="251.245" y="0">r</tspan><tspan class="cls-9" x="313.148" y="0">et</tspan></text>
      <text class="cls-5" transform="translate(445.737 404.619)"><tspan x="0" y="0">S</tspan><tspan class="cls-11" x="120.534" y="0">a</tspan><tspan class="cls-8" x="232.715" y="0">uce</tspan></text>
    </g>
    <g>
      <path class="cls-6" d="M386.229,429.104v-162.816c-39.053-48.735-78.334-106.178-117.753-168.893-3.697-5.882-12.671-4.3-14.127,2.494l-5.712,26.665c-3.599,16.802-12.738,31.956-26.075,42.791-17.209,13.98-36.724,21.951-58.604,23.758-8.568.707-17.195-.12-25.501-2.335l-35.665-9.511c-5.901-1.574-11.207,3.983-9.374,9.809,26.696,84.847,45.968,170.293,57.823,256.336h216.691c10.105,0,18.297-8.192,18.297-18.297Z"/>
      <path class="cls-7" d="M367.932,450.579H69.171c-11.841,0-21.475-9.634-21.475-21.475v-225.994c0-45.637,17.772-88.542,50.042-120.813,32.27-32.27,75.175-50.042,120.812-50.042s88.542,17.772,120.813,50.042c32.27,32.27,50.042,75.176,50.042,120.813v225.994c0,11.841-9.634,21.475-21.475,21.475ZM218.551,35.433c-44.788,0-86.895,17.441-118.565,49.111-31.67,31.67-49.111,73.778-49.111,118.566v225.994c0,10.089,8.208,18.297,18.297,18.297h298.761c10.089,0,18.297-8.208,18.297-18.297v-225.994c0-44.788-17.441-86.895-49.111-118.566-31.671-31.67-73.778-49.111-118.566-49.111Z"/>
      <path class="cls-1" d="M322.249,133.733l-68.662,110.35c-7.112,11.43-20.372,17.497-33.671,15.406l-127.322-20.025c70.6,113.49,121.434,71.421,142.802,42.514,6.184-8.366,16.138-13.05,26.517-12.333,36.01,2.488,99.738-9.301,60.337-135.911Z"/>
      <path class="cls-2" d="M351.699,261.629s-29.261,92.081-81.03,52.701c0,0-28.84,78.292-108.695,31.328"/>
      <path class="cls-1" d="M107.03,326.847c-2.414,0-4.632-1.593-5.318-4.032-.826-2.938.886-5.991,3.824-6.817,22.633-6.367,39.676-3.642,40.389-3.523,3.011.502,5.045,3.35,4.543,6.361-.501,3.007-3.339,5.044-6.348,4.545h0c-.153-.025-15.476-2.4-35.592,3.258-.5.141-1.004.208-1.499.208Z"/>
      <path class="cls-1" d="M108.546,355.509c-1.795,0-3.556-.873-4.618-2.483-1.681-2.548-.979-5.977,1.569-7.657,19.623-12.95,36.686-15.54,37.403-15.644,3.023-.437,5.825,1.656,6.263,4.677.437,3.018-1.651,5.818-4.666,6.261-.245.037-15.524,2.457-32.912,13.932-.938.619-1.994.915-3.039.915Z"/>
      <path class="cls-1" d="M369.059,208.281c1.422-1.951,1.44-4.682-.127-6.672-1.888-2.398-5.363-2.812-7.762-.924-18.475,14.543-26.309,29.921-26.633,30.567-1.368,2.729-.264,6.05,2.465,7.418,2.725,1.366,6.043.272,7.412-2.453h0c.07-.138,7.175-13.921,23.594-26.846.408-.321.759-.689,1.051-1.089Z"/>
      <path class="cls-1" d="M391.331,226.385c1.057-1.451,1.388-3.388.713-5.195-1.069-2.859-4.254-4.311-7.112-3.242-22.023,8.233-34.165,20.498-34.671,21.016-2.133,2.186-2.092,5.683.091,7.816,2.181,2.131,5.674,2.092,7.808-.083.174-.176,11.129-11.1,30.642-18.394,1.052-.393,1.914-1.073,2.529-1.917Z"/>
    </g>
  </g>
</svg>